<svg xmlns="http://www.w3.org/2000/svg" viewBox="53.50 53.50 199.00 134.00" role="img" aria-label="St.Clair Square"><title>St.Clair Square</title>
<path fill-rule="nonzero" fill="rgb(25.4776%, 12.269592%, 16.677856%)" fill-opacity="1" d="M 57.058594 104.683594 C 55.746094 104.683594 55.019531 105.703125 54.726562 108.035156 L 54 108.035156 L 54 90.847656 L 54.726562 90.847656 C 55.964844 101.1875 61.71875 108.035156 69.730469 108.035156 C 75.699219 108.035156 81.453125 104.175781 81.453125 96.894531 C 81.453125 91.722656 78.542969 87.9375 70.3125 84.660156 L 65.941406 82.910156 C 57.277344 79.488281 54.292969 74.246094 54.292969 68.710938 C 54.292969 60.261719 60.84375 54.292969 68.636719 54.292969 C 75.191406 54.292969 77.304688 58.296875 80.144531 58.296875 C 81.382812 58.296875 81.964844 57.277344 82.253906 55.019531 L 82.984375 55.019531 L 82.984375 72.207031 L 82.253906 72.207031 C 81.234375 61.5 75.699219 55.019531 68.710938 55.019531 C 63.46875 55.019531 58.367188 58.734375 58.367188 65.578125 C 58.367188 70.167969 60.773438 74.097656 68.855469 77.15625 L 73.296875 78.832031 C 82.253906 82.183594 85.460938 87.207031 85.460938 93.542969 C 85.460938 102.644531 78.175781 108.761719 69.730469 108.761719 C 62.230469 108.761719 59.824219 104.683594 57.058594 104.683594 "/>
<path fill-rule="nonzero" fill="rgb(25.4776%, 12.269592%, 16.677856%)" fill-opacity="1" d="M 92.523438 100.972656 L 92.523438 73.808594 L 88.152344 73.808594 L 88.152344 73.082031 C 95.289062 73.082031 96.816406 69.65625 97.621094 61.0625 L 98.347656 61.0625 L 98.347656 73.082031 L 106.578125 73.082031 L 106.578125 73.808594 L 98.347656 73.808594 L 98.347656 102.355469 C 98.347656 105.414062 99.367188 107.015625 101.550781 107.015625 C 103.445312 107.015625 105.558594 105.632812 107.085938 102.5 L 107.742188 102.792969 C 106.214844 105.996094 103.519531 108.761719 99.878906 108.761719 C 95.214844 108.761719 92.523438 106.433594 92.523438 100.972656 "/>
<path fill-rule="nonzero" fill="rgb(25.4776%, 12.269592%, 16.677856%)" fill-opacity="1" d="M 110.265625 104.832031 C 110.265625 102.792969 111.9375 101.042969 114.050781 101.042969 C 116.089844 101.042969 117.839844 102.792969 117.839844 104.832031 C 117.839844 106.941406 116.089844 108.617188 114.050781 108.617188 C 111.9375 108.617188 110.265625 106.941406 110.265625 104.832031 "/>
<path fill-rule="nonzero" fill="rgb(25.4776%, 12.269592%, 16.677856%)" fill-opacity="1" d="M 121.140625 81.527344 C 121.140625 66.089844 129.804688 54.292969 142.332031 54.292969 C 150.050781 54.292969 153.109375 59.023438 155.585938 59.023438 C 156.894531 59.023438 157.480469 58.078125 157.695312 55.019531 L 158.425781 55.019531 L 158.425781 72.207031 L 157.695312 72.207031 C 156.824219 63.757812 151.289062 55.019531 142.332031 55.019531 C 131.554688 55.019531 127.765625 66.960938 127.765625 81.527344 C 127.765625 96.09375 131.84375 108.035156 142.695312 108.035156 C 153.253906 108.035156 157.84375 98.347656 158.570312 88.519531 L 159.300781 88.519531 C 158.570312 98.714844 153.691406 108.761719 142.695312 108.761719 C 129.515625 108.761719 121.140625 96.964844 121.140625 81.527344 "/>
<path fill-rule="nonzero" fill="rgb(25.4776%, 12.269592%, 16.677856%)" fill-opacity="1" d="M 161.917969 107.308594 L 166.652344 107.308594 L 166.652344 55.746094 L 161.917969 55.746094 L 161.917969 55.019531 L 165.125 55.019531 C 167.453125 55.019531 170.148438 54.875 172.476562 54 L 172.476562 107.308594 L 177.140625 107.308594 L 177.140625 108.035156 L 161.917969 108.035156 Z M 161.917969 107.308594 "/>
<path fill-rule="nonzero" fill="rgb(25.4776%, 12.269592%, 16.677856%)" fill-opacity="1" d="M 198.765625 103.230469 C 196.507812 106.652344 193.449219 108.617188 189.007812 108.617188 C 183.183594 108.617188 179.324219 105.703125 179.324219 100.316406 C 179.324219 94.34375 183.835938 91.359375 192.867188 89.683594 L 198.621094 88.589844 L 198.621094 80.796875 C 198.621094 75.847656 196.289062 73.078125 191.777344 73.078125 C 187.332031 73.078125 184.421875 75.410156 184.421875 76.867188 C 184.421875 78.324219 187.261719 78.613281 187.261719 81.234375 C 187.261719 82.835938 186.023438 84.148438 184.421875 84.148438 C 182.671875 84.148438 181.070312 82.765625 181.070312 80.289062 C 181.070312 75.773438 186.3125 72.351562 192.210938 72.351562 C 200.078125 72.351562 204.519531 75.992188 204.519531 82.546875 L 204.519531 104.46875 C 204.519531 106.285156 205.03125 107.085938 206.195312 107.085938 C 207.359375 107.085938 208.234375 106.214844 209.035156 105.050781 L 209.617188 105.484375 C 208.816406 106.652344 207.140625 108.617188 204.011719 108.617188 C 200.441406 108.617188 199.058594 106.214844 198.765625 103.230469 M 191.339844 106.941406 C 194.179688 106.941406 196.726562 105.269531 198.621094 102.207031 L 198.621094 89.390625 L 194.542969 90.191406 C 187.84375 91.503906 185.078125 94.417969 185.078125 99.660156 C 185.078125 104.101562 187.261719 106.941406 191.339844 106.941406 "/>
<path fill-rule="nonzero" fill="rgb(25.4776%, 12.269592%, 16.677856%)" fill-opacity="1" d="M 210.492188 107.308594 L 215.152344 107.308594 L 215.152344 73.808594 L 210.492188 73.808594 L 210.492188 73.078125 L 213.695312 73.078125 C 215.953125 73.078125 218.71875 72.933594 221.050781 72.0625 L 221.050781 107.308594 L 225.710938 107.308594 L 225.710938 108.035156 L 210.492188 108.035156 Z M 214.058594 59.460938 C 214.058594 57.421875 215.660156 55.820312 217.628906 55.820312 C 219.667969 55.820312 221.269531 57.421875 221.269531 59.460938 C 221.269531 61.5 219.667969 63.03125 217.628906 63.03125 C 215.660156 63.03125 214.058594 61.5 214.058594 59.460938 "/>
<path fill-rule="nonzero" fill="rgb(25.4776%, 12.269592%, 16.677856%)" fill-opacity="1" d="M 227.238281 107.308594 L 231.902344 107.308594 L 231.902344 73.808594 L 227.238281 73.808594 L 227.238281 73.078125 L 230.371094 73.078125 C 232.703125 73.078125 235.324219 72.933594 237.582031 72.351562 L 237.582031 78.90625 C 239.183594 75.484375 242.679688 72.351562 246.683594 72.351562 C 249.886719 72.351562 252 74.535156 252 77.011719 C 252 79.34375 250.398438 80.945312 248.359375 80.945312 C 246.609375 80.945312 245.371094 79.632812 245.371094 77.886719 C 245.371094 76.140625 246.683594 75.773438 246.683594 74.828125 C 246.683594 74.316406 246.171875 73.808594 245.007812 73.808594 C 242.386719 73.808594 238.890625 76.867188 237.726562 80.652344 L 237.726562 107.308594 L 243.84375 107.308594 L 243.84375 108.035156 L 227.238281 108.035156 Z M 227.238281 107.308594 "/>
<path fill-rule="nonzero" fill="rgb(25.4776%, 12.269592%, 16.677856%)" fill-opacity="1" d="M 57.058594 166.828125 C 55.746094 166.828125 55.019531 167.847656 54.726562 170.175781 L 54 170.175781 L 54 152.992188 L 54.726562 152.992188 C 55.964844 163.332031 61.71875 170.175781 69.730469 170.175781 C 75.699219 170.175781 81.453125 166.316406 81.453125 159.035156 C 81.453125 153.863281 78.542969 150.078125 70.3125 146.800781 L 65.941406 145.054688 C 57.277344 141.628906 54.292969 136.386719 54.292969 130.851562 C 54.292969 122.40625 60.84375 116.433594 68.636719 116.433594 C 75.191406 116.433594 77.304688 120.4375 80.144531 120.4375 C 81.382812 120.4375 81.964844 119.417969 82.253906 117.160156 L 82.984375 117.160156 L 82.984375 134.347656 L 82.253906 134.347656 C 81.234375 123.644531 75.699219 117.160156 68.710938 117.160156 C 63.46875 117.160156 58.367188 120.875 58.367188 127.722656 C 58.367188 132.308594 60.773438 136.242188 68.855469 139.300781 L 73.296875 140.976562 C 82.253906 144.324219 85.460938 149.347656 85.460938 155.683594 C 85.460938 164.789062 78.175781 170.90625 69.730469 170.90625 C 62.230469 170.90625 59.824219 166.828125 57.058594 166.828125 "/>
<path fill-rule="nonzero" fill="rgb(25.4776%, 12.269592%, 16.677856%)" fill-opacity="1" d="M 109.5625 186.199219 L 114.222656 186.199219 L 114.222656 165.007812 C 111.894531 168.648438 108.835938 170.90625 104.390625 170.90625 C 95.726562 170.90625 90.121094 163.769531 90.121094 153.136719 C 90.121094 142.066406 96.746094 134.492188 105.847656 134.492188 C 112.257812 134.492188 115.390625 138.71875 117.429688 138.71875 C 118.59375 138.71875 119.03125 137.699219 119.539062 135.222656 L 120.121094 135.222656 L 120.121094 186.199219 L 124.785156 186.199219 L 124.785156 186.925781 L 109.5625 186.925781 Z M 105.921875 169.449219 C 109.054688 169.449219 112.039062 167.554688 114.222656 163.625 L 114.222656 139.300781 C 112.476562 136.824219 109.855469 135.441406 106.578125 135.441406 C 99.367188 135.441406 96.382812 142.578125 96.382812 152.84375 C 96.382812 163.257812 99.511719 169.449219 105.921875 169.449219 "/>
<path fill-rule="nonzero" fill="rgb(25.4776%, 12.269592%, 16.677856%)" fill-opacity="1" d="M 128.957031 159.691406 L 128.957031 135.949219 L 124.585938 135.949219 L 124.585938 135.222656 L 134.785156 135.222656 L 134.785156 160.710938 C 134.785156 167.046875 137.40625 169.375 141.484375 169.375 C 144.46875 169.375 147.746094 167.847656 150.078125 163.839844 L 150.078125 135.949219 L 145.414062 135.949219 L 145.414062 135.222656 L 155.902344 135.222656 L 155.902344 169.449219 L 160.5625 169.449219 L 160.5625 170.175781 L 157.429688 170.175781 C 155.101562 170.175781 152.480469 170.324219 150.222656 170.90625 L 150.222656 165.007812 C 147.746094 168.71875 143.957031 170.90625 139.515625 170.90625 C 133.328125 170.90625 128.957031 167.699219 128.957031 159.691406 "/>
<path fill-rule="nonzero" fill="rgb(25.4776%, 12.269592%, 16.677856%)" fill-opacity="1" d="M 183.160156 165.371094 C 180.90625 168.792969 177.84375 170.761719 173.402344 170.761719 C 167.578125 170.761719 163.71875 167.847656 163.71875 162.457031 C 163.71875 156.484375 168.234375 153.5 177.261719 151.824219 L 183.015625 150.734375 L 183.015625 142.941406 C 183.015625 137.988281 180.6875 135.222656 176.171875 135.222656 C 171.730469 135.222656 168.816406 137.550781 168.816406 139.007812 C 168.816406 140.464844 171.65625 140.757812 171.65625 143.378906 C 171.65625 144.980469 170.417969 146.289062 168.816406 146.289062 C 167.066406 146.289062 165.464844 144.90625 165.464844 142.433594 C 165.464844 137.914062 170.707031 134.492188 176.609375 134.492188 C 184.472656 134.492188 188.914062 138.136719 188.914062 144.6875 L 188.914062 166.609375 C 188.914062 168.429688 189.425781 169.230469 190.589844 169.230469 C 191.753906 169.230469 192.628906 168.355469 193.429688 167.191406 L 194.011719 167.628906 C 193.210938 168.792969 191.535156 170.761719 188.40625 170.761719 C 184.835938 170.761719 183.453125 168.355469 183.160156 165.371094 M 175.734375 169.085938 C 178.574219 169.085938 181.121094 167.410156 183.015625 164.351562 L 183.015625 151.535156 L 178.9375 152.335938 C 172.238281 153.644531 169.46875 156.558594 169.46875 161.804688 C 169.46875 166.246094 171.65625 169.085938 175.734375 169.085938 "/>
<path fill-rule="nonzero" fill="rgb(25.4776%, 12.269592%, 16.677856%)" fill-opacity="1" d="M 196.34375 169.449219 L 201.003906 169.449219 L 201.003906 135.949219 L 196.34375 135.949219 L 196.34375 135.222656 L 199.472656 135.222656 C 201.804688 135.222656 204.425781 135.074219 206.683594 134.492188 L 206.683594 141.046875 C 208.285156 137.625 211.78125 134.492188 215.789062 134.492188 C 218.992188 134.492188 221.101562 136.679688 221.101562 139.152344 C 221.101562 141.484375 219.5 143.085938 217.460938 143.085938 C 215.714844 143.085938 214.476562 141.777344 214.476562 140.027344 C 214.476562 138.28125 215.789062 137.914062 215.789062 136.96875 C 215.789062 136.460938 215.277344 135.949219 214.113281 135.949219 C 211.492188 135.949219 207.996094 139.007812 206.832031 142.796875 L 206.832031 169.449219 L 212.949219 169.449219 L 212.949219 170.175781 L 196.34375 170.175781 Z M 196.34375 169.449219 "/>
<path fill-rule="nonzero" fill="rgb(25.4776%, 12.269592%, 16.677856%)" fill-opacity="1" d="M 221.929688 152.917969 C 221.929688 141.992188 229.355469 134.492188 237.949219 134.492188 C 246.105469 134.492188 251.347656 140.757812 251.347656 149.714844 L 228.046875 149.714844 C 227.972656 150.660156 227.972656 151.605469 227.972656 152.554688 C 227.972656 162.894531 232.34375 169.523438 239.261719 169.523438 C 244.359375 169.523438 248.945312 165.734375 250.621094 158.890625 L 251.347656 159.035156 C 249.527344 166.464844 244.578125 170.90625 237.4375 170.90625 C 228.480469 170.90625 221.929688 163.40625 221.929688 152.917969 M 245.960938 148.984375 C 246.179688 141.921875 244.066406 135.222656 237.949219 135.222656 C 232.414062 135.222656 228.917969 140.609375 228.117188 148.984375 Z M 245.960938 148.984375 "/>
</svg>